<svg
    xmlns="http://www.w3.org/2000/svg"
    xmlns:xlink="http://www.w3.org/1999/xlink"
    aria-hidden="true"
    role="img"
    id="arrow-fat-up-fill"
    width="1em"
    height="1em"
    preserveAspectRatio="xMidYMid meet"
    viewBox="0 0 256 256"
    class="iconify iconify--ph"
>
    <path fill="currentColor" d="M231.4 123.1a8 8 0 0 1-7.4 4.9h-40v80a16 16 0 0 1-16 16H88a16 16 0 0 1-16-16v-80H32a8 8 0 0 1-7.4-4.9a8.4 8.4 0 0 1 1.7-8.8l96-96a8.1 8.1 0 0 1 11.4 0l96 96a8.4 8.4 0 0 1 1.7 8.8Z"></path>
</svg>