<svg
    xmlns="http://www.w3.org/2000/svg"
    xmlns:xlink="http://www.w3.org/1999/xlink"
    aria-hidden="true"
    role="img"
    id="chat-circle-text"
    width="1em"
    height="1em"
    preserveAspectRatio="xMidYMid meet"
    viewBox="0 0 256 256"
    class="iconify iconify--ph"
>
    <path fill="currentColor" d="M128 24a104 104 0 0 0-91.2 154l-8.5 30A15.9 15.9 0 0 0 48 227.7l30-8.5A104 104 0 1 0 128 24Zm0 192a88.4 88.4 0 0 1-44.9-12.3a8.7 8.7 0 0 0-4.1-1.1a8.3 8.3 0 0 0-2.2.3l-33.2 9.5l9.5-33.2a8.2 8.2 0 0 0-.8-6.3A88 88 0 1 1 128 216Zm40-104a8 8 0 0 1-8 8H96a8 8 0 0 1 0-16h64a8 8 0 0 1 8 8Zm0 32a8 8 0 0 1-8 8H96a8 8 0 0 1 0-16h64a8 8 0 0 1 8 8Z"></path>
</svg>