<svg
    xmlns="http://www.w3.org/2000/svg"
    xmlns:xlink="http://www.w3.org/1999/xlink"
    aria-hidden="true"
    role="img"
    id="house-fill"
    width="1em"
    height="1em"
    preserveAspectRatio="xMidYMid meet"
    viewBox="0 0 256 256"
    class="iconify iconify--ph"
>
    <path fill="currentColor" d="M224 115.5V208a16.1 16.1 0 0 1-8.4 14.1a15.3 15.3 0 0 1-7.6 1.9h-48a8 8 0 0 1-8-8v-48a8 8 0 0 0-8-8h-32a8 8 0 0 0-8 8v48a8 8 0 0 1-8 8H48a15.9 15.9 0 0 1-12-5.4a16.9 16.9 0 0 1-4-11v-92.1a16 16 0 0 1 5.2-11.8l80-72.7a16 16 0 0 1 21.6 0l80 72.7a16 16 0 0 1 5.2 11.8Z"></path>
</svg>