<svg
    xmlns="http://www.w3.org/2000/svg"
    xmlns:xlink="http://www.w3.org/1999/xlink"
    aria-hidden="true"
    role="img"
    id="house"
    width="1em"
    height="1em"
    preserveAspectRatio="xMidYMid meet"
    viewBox="0 0 256 256"
    class="iconify iconify--ph"
>
    <svg xmlns="http://www.w3.org/2000/svg" xmlns:xlink="http://www.w3.org/1999/xlink" aria-hidden="true" role="img" id="footer-sample-full" width="1em" height="1em" preserveAspectRatio="xMidYMid meet" viewBox="0 0 256 256" class="iconify iconify--ph"><path fill="currentColor" d="M208 224h-48a16 16 0 0 1-16-16v-48h-32v48a16 16 0 0 1-16 16H48a16 16 0 0 1-16-16v-92.5a16 16 0 0 1 5.2-11.8l80-72.7a16 16 0 0 1 21.6 0l80 72.7a16 16 0 0 1 5.2 11.8V208a16 16 0 0 1-16 16Zm-96-80h32a16 16 0 0 1 16 16v48h48v-92.5l-80-72.7l-80 72.7V208h48v-48a16 16 0 0 1 16-16Z"></path></svg>
</svg>